The.Dark.Knight.Rises.2012.TS.NEW.SOURCE.XVID
 
http://www.imdb.com/title/tt1345836/

Plot:
Eight years on, a new terrorist leader, Bane, overwhelms Gotham's finest, and the Dark Knight resurfaces to protect a city that has branded him an enemy.

Sources - audio-elvis/26k cam audio.....Thanks :P
 VIDEO-hd files.....Thanks :P

Video
ID : 0
Format : MPEG-4 Visual
Format profile : Simple@L5
Format settings, BVOP : No
Format settings, QPel : No
Format settings, GMC : No warppoints
Format settings, Matrix : Default (H.263)
Codec ID : XVID
Codec ID/Hint : XviD
Duration : 2h 37mn
Bit rate : 1 494 Kbps
Width : 720 pixels
Height : 260 pixels
Display aspect ratio : 2.769
Frame rate : 29.970 fps
Color space : YUV
Chroma subsampling : 4:2:0
Bit depth : 8 bits
Scan type : Progressive
Compression mode : Lossy
Bits/(Pixel*Frame) : 0.266
Stream size : 1.64 GiB (92%)
Writing library : XviD 64

Audio
ID : 1
Format : MPEG Audio
Format version : Version 1
Format profile : Layer 3
Mode : Joint stereo
Mode extension : MS Stereo
Codec ID : 55
Codec ID/Hint : MP3
Duration : 2h 37mn
Bit rate mode : Constant
Bit rate : 128 Kbps
Channel(s) : 2 channels
Sampling rate : 44.1 KHz
Compression mode : Lossy
Stream size : 144 MiB (8%)
Alignment : Split accross interleaves
Interleave, duration : 16366 ms (490.48 video frames)
Writing library : LAME3.99r
Encoding settings : -m j -V 4 -q 2 -lowpass 17 -b 128

Enjoy and plz seeeeeeeeeeeeed!!
Thx Legend2000!